<svg width="1206" height="2623" viewBox="0 0 1206 2623" fill="none" xmlns="http://www.w3.org/2000/svg">
<path d="M0 298.1C0 193.93 0 141.845 20.2728 102.058C38.1052 67.0596 66.5596 38.6052 101.558 20.7728C141.345 0.5 193.43 0.5 297.6 0.5H908.4C1012.57 0.5 1064.65 0.5 1104.44 20.7728C1139.44 38.6052 1167.89 67.0596 1185.73 102.058C1206 141.845 1206 193.93 1206 298.1V2324.9C1206 2429.07 1206 2481.15 1185.73 2520.94C1167.89 2555.94 1139.44 2584.39 1104.44 2602.23C1064.65 2622.5 1012.57 2622.5 908.4 2622.5H297.6C193.43 2622.5 141.345 2622.5 101.558 2602.23C66.5596 2584.39 38.1052 2555.94 20.2728 2520.94C0 2481.15 0 2429.07 0 2324.9V298.1Z" fill="#008000"/>
</svg>
