<svg width="2048" height="2733" viewBox="0 0 2048 2733" fill="none" xmlns="http://www.w3.org/2000/svg">
<path d="M51.2 2732.5C33.2783 2732.5 24.3175 2732.5 17.4723 2729.01C11.4511 2725.94 6.55574 2721.05 3.48779 2715.03C0 2708.18 0 2699.22 0 2681.3V51.7C0 33.7783 0 24.8175 3.48779 17.9723C6.55574 11.9511 11.4511 7.05574 17.4723 3.98779C24.3175 0.5 33.2783 0.5 51.2 0.5H1996.8C2014.72 0.5 2023.68 0.5 2030.53 3.98779C2036.55 7.05574 2041.44 11.9511 2044.51 17.9723C2048 24.8175 2048 33.7783 2048 51.7V2681.3C2048 2699.22 2048 2708.18 2044.51 2715.03C2041.44 2721.05 2036.55 2725.94 2030.53 2729.01C2023.68 2732.5 2014.72 2732.5 1996.8 2732.5H51.2Z" fill="#008000"/>
</svg>
