<svg width="1320" height="2869" viewBox="0 0 1320 2869" fill="none" xmlns="http://www.w3.org/2000/svg">
<path d="M0 321.8C0 198.064 0 136.196 27.851 90.7478C43.4351 65.3168 64.8168 43.9351 90.2478 28.351C135.696 0.5 197.564 0.5 321.3 0.5H998.7C1122.44 0.5 1184.3 0.5 1229.75 28.351C1255.18 43.9351 1276.56 65.3168 1292.15 90.7478C1320 136.196 1320 198.064 1320 321.8V2547.2C1320 2670.94 1320 2732.8 1292.15 2778.25C1276.56 2803.68 1255.18 2825.06 1229.75 2840.65C1184.3 2868.5 1122.44 2868.5 998.7 2868.5H321.3C197.564 2868.5 135.696 2868.5 90.2478 2840.65C64.8168 2825.06 43.4351 2803.68 27.851 2778.25C0 2732.8 0 2670.94 0 2547.2V321.8Z" fill="#008000"/>
</svg>
