<svg width="1668" height="2389" viewBox="0 0 1668 2389" fill="none" xmlns="http://www.w3.org/2000/svg">
<path d="M0 51.6999C0 33.7783 0 24.8175 3.48779 17.9723C6.55574 11.9511 11.4511 7.05574 17.4723 3.98779C24.3175 0.5 33.2783 0.5 51.2 0.5H1616.8C1634.72 0.5 1643.68 0.5 1650.53 3.98779C1656.55 7.05574 1661.44 11.9511 1664.51 17.9723C1668 24.8175 1668 33.7783 1668 51.7V2337.3C1668 2355.22 1668 2364.18 1664.51 2371.03C1661.44 2377.05 1656.55 2381.94 1650.53 2385.01C1643.68 2388.5 1634.72 2388.5 1616.8 2388.5H51.2C33.2783 2388.5 24.3175 2388.5 17.4723 2385.01C11.4511 2381.94 6.55574 2377.05 3.48779 2371.03C0 2364.18 0 2355.22 0 2337.3V51.6999Z" fill="#008000"/>
</svg>
