<svg width="1231" height="1771" viewBox="0 0 1231 1771" fill="none" xmlns="http://www.w3.org/2000/svg">
<path d="M0.5 35.5999C0.5 28.0695 0.5 24.3043 1.24601 21.197C3.61619 11.3245 11.3245 3.61619 21.197 1.24601C24.3043 0.5 28.0696 0.5 35.6 0.5H1195.4C1202.93 0.5 1206.7 0.5 1209.8 1.24601C1219.68 3.61619 1227.38 11.3245 1229.75 21.197C1230.5 24.3043 1230.5 28.0696 1230.5 35.6V1735.4C1230.5 1742.93 1230.5 1746.7 1229.75 1749.8C1227.38 1759.68 1219.68 1767.38 1209.8 1769.75C1206.7 1770.5 1202.93 1770.5 1195.4 1770.5H35.6C28.0695 1770.5 24.3043 1770.5 21.197 1769.75C11.3245 1767.38 3.61619 1759.68 1.24601 1749.8C0.5 1746.7 0.5 1742.93 0.5 1735.4V35.5999Z" fill="#008000"/>
</svg>
