<svg width="1320" height="2869" viewBox="0 0 1320 2869" fill="none" xmlns="http://www.w3.org/2000/svg">
<path d="M0 297.975C0 193.805 0 141.72 20.2728 101.933C38.1052 66.9346 66.5596 38.4802 101.558 20.6478C141.345 0.375 193.43 0.375 297.6 0.375H1022.4C1126.57 0.375 1178.65 0.375 1218.44 20.6478C1253.44 38.4802 1281.89 66.9346 1299.73 101.933C1320 141.72 1320 193.805 1320 297.975V2570.77C1320 2674.94 1320 2727.03 1299.73 2766.82C1281.89 2801.82 1253.44 2830.27 1218.44 2848.1C1178.65 2868.38 1126.57 2868.38 1022.4 2868.38H297.6C193.43 2868.38 141.345 2868.38 101.558 2848.1C66.5596 2830.27 38.1052 2801.82 20.2728 2766.82C0 2727.03 0 2674.94 0 2570.77V297.975Z" fill="#008000"/>
</svg>
