<svg width="912" height="1389" viewBox="0 0 912 1389" fill="none" xmlns="http://www.w3.org/2000/svg">
<path d="M0 37.7C0 29.6117 0 25.5676 0.801272 22.2301C3.34702 11.6263 11.6263 3.34702 22.2301 0.801272C25.5676 0 29.6117 0 37.7 0H874.3C882.388 0 886.432 0 889.77 0.801272C900.374 3.34702 908.653 11.6263 911.199 22.2301C912 25.5676 912 29.6117 912 37.7V1351.3C912 1359.39 912 1363.43 911.199 1366.77C908.653 1377.37 900.374 1385.65 889.77 1388.2C886.432 1389 882.388 1389 874.3 1389H37.7C29.6118 1389 25.5676 1389 22.2301 1388.2C11.6263 1385.65 3.34702 1377.37 0.801272 1366.77C0 1363.43 0 1359.39 0 1351.3V37.7Z" fill="#008000"/>
</svg>
