<svg width="1284" height="2778" viewBox="0 0 1284 2778" fill="none" xmlns="http://www.w3.org/2000/svg">
<path d="M0 254.4C0 165.352 0 120.827 17.33 86.8155C32.5738 56.8977 56.8977 32.5738 86.8155 17.33C120.827 0 165.352 0 254.4 0H1029.6C1118.65 0 1163.17 0 1197.18 17.33C1227.1 32.5738 1251.43 56.8977 1266.67 86.8155C1284 120.827 1284 165.352 1284 254.4V2523.6C1284 2612.65 1284 2657.17 1266.67 2691.18C1251.43 2721.1 1227.1 2745.43 1197.18 2760.67C1163.17 2778 1118.65 2778 1029.6 2778H254.4C165.352 2778 120.827 2778 86.8155 2760.67C56.8977 2745.43 32.5738 2721.1 17.33 2691.18C0 2657.17 0 2612.65 0 2523.6V254.4Z" fill="#008000"/>
</svg>
