<svg width="1179" height="2556" viewBox="0 0 1179 2556" fill="none" xmlns="http://www.w3.org/2000/svg">
<path d="M0 264C0 171.591 0 125.387 17.9839 90.0916C33.803 59.0448 59.0448 33.803 90.0916 17.9839C125.387 0 171.591 0 264 0H915C1007.41 0 1053.61 0 1088.91 17.9839C1119.96 33.803 1145.2 59.0448 1161.02 90.0916C1179 125.387 1179 171.591 1179 264V2292C1179 2384.41 1179 2430.61 1161.02 2465.91C1145.2 2496.96 1119.96 2522.2 1088.91 2538.02C1053.61 2556 1007.41 2556 915 2556H264C171.591 2556 125.387 2556 90.0916 2538.02C59.0448 2522.2 33.803 2496.96 17.9839 2465.91C0 2430.61 0 2384.41 0 2292V264Z" fill="#008000"/>
</svg>
