<svg width="1206" height="2623" viewBox="0 0 1206 2623" fill="none" xmlns="http://www.w3.org/2000/svg">
<path d="M0 318.15C0 195.724 0 134.511 27.5563 89.5428C42.9755 64.3809 64.1309 43.2255 89.2928 27.8063C134.261 0.25 195.474 0.25 317.9 0.25H888.1C1010.53 0.25 1071.74 0.25 1116.71 27.8063C1141.87 43.2255 1163.02 64.3809 1178.44 89.5428C1206 134.511 1206 195.724 1206 318.15V2304.35C1206 2426.78 1206 2487.99 1178.44 2532.96C1163.02 2558.12 1141.87 2579.27 1116.71 2594.69C1071.74 2622.25 1010.53 2622.25 888.1 2622.25H317.9C195.474 2622.25 134.261 2622.25 89.2928 2594.69C64.1309 2579.27 42.9755 2558.12 27.5563 2532.96C0 2487.99 0 2426.78 0 2304.35V318.15Z" fill="#008000"/>
</svg>
