<svg width="1179" height="2557" viewBox="0 0 1179 2557" fill="none" xmlns="http://www.w3.org/2000/svg">
<path d="M0 277.975C0 171.261 0 117.904 24.0197 78.7077C37.4599 56.7752 55.9002 38.3349 77.8327 24.8947C117.029 0.875 170.386 0.875 277.1 0.875H901.9C1008.61 0.875 1061.97 0.875 1101.17 24.8947C1123.1 38.3349 1141.54 56.7752 1154.98 78.7077C1179 117.904 1179 171.261 1179 277.975V2279.77C1179 2386.49 1179 2439.85 1154.98 2479.04C1141.54 2500.97 1123.1 2519.42 1101.17 2532.86C1061.97 2556.88 1008.61 2556.88 901.9 2556.88H277.1C170.386 2556.88 117.029 2556.88 77.8327 2532.86C55.9002 2519.42 37.4599 2500.97 24.0197 2479.04C0 2439.85 0 2386.49 0 2279.77V277.975Z" fill="#008000"/>
</svg>
