<svg width="1290" height="2796" viewBox="0 0 1290 2796" fill="none" xmlns="http://www.w3.org/2000/svg">
<path d="M0 262.4C0 170.551 0 124.627 17.8749 89.5456C33.5982 58.687 58.687 33.5982 89.5456 17.8749C124.627 0 170.551 0 262.4 0H1027.6C1119.45 0 1165.37 0 1200.45 17.8749C1231.31 33.5982 1256.4 58.687 1272.13 89.5456C1290 124.627 1290 170.551 1290 262.4V2533.6C1290 2625.45 1290 2671.37 1272.13 2706.45C1256.4 2737.31 1231.31 2762.4 1200.45 2778.12C1165.37 2796 1119.45 2796 1027.6 2796H262.4C170.551 2796 124.627 2796 89.5456 2778.12C58.687 2762.4 33.5982 2737.31 17.8749 2706.45C0 2671.37 0 2625.45 0 2533.6V262.4Z" fill="#008000"/>
</svg>
