<svg width="1260" height="2736" viewBox="0 0 1260 2736" fill="none" xmlns="http://www.w3.org/2000/svg">
<path d="M0 297.6C0 193.43 0 141.345 20.2728 101.558C38.1052 66.5596 66.5596 38.1052 101.558 20.2728C141.345 0 193.43 0 297.6 0H962.4C1066.57 0 1118.65 0 1158.44 20.2728C1193.44 38.1052 1221.89 66.5596 1239.73 101.558C1260 141.345 1260 193.43 1260 297.6V2438.4C1260 2542.57 1260 2594.65 1239.73 2634.44C1221.89 2669.44 1193.44 2697.89 1158.44 2715.73C1118.65 2736 1066.57 2736 962.4 2736H297.6C193.43 2736 141.345 2736 101.558 2715.73C66.5596 2697.89 38.1052 2669.44 20.2728 2634.44C0 2594.65 0 2542.57 0 2438.4V297.6Z" fill="#008000"/>
</svg>
