<svg width="1206" height="2623" viewBox="0 0 1206 2623" fill="none" xmlns="http://www.w3.org/2000/svg">
<path d="M0 316.95C0 195.178 0 134.293 27.4089 89.5653C42.7457 64.5379 63.7879 43.4957 88.8153 28.1589C133.543 0.75 194.428 0.75 316.2 0.75H889.8C1011.57 0.75 1072.46 0.75 1117.18 28.1589C1142.21 43.4957 1163.25 64.5379 1178.59 89.5653C1206 134.293 1206 195.178 1206 316.95V2306.55C1206 2428.32 1206 2489.21 1178.59 2533.93C1163.25 2558.96 1142.21 2580 1117.18 2595.34C1072.46 2622.75 1011.57 2622.75 889.8 2622.75H316.2C194.428 2622.75 133.543 2622.75 88.8153 2595.34C63.7879 2580 42.7457 2558.96 27.4089 2533.93C0 2489.21 0 2428.32 0 2306.55V316.95Z" fill="#008000"/>
</svg>
