<svg width="1179" height="2557" viewBox="0 0 1179 2557" fill="none" xmlns="http://www.w3.org/2000/svg">
<path d="M0 262.9C0 171.051 0 125.127 17.8749 90.0456C33.5982 59.187 58.687 34.0982 89.5456 18.3749C124.627 0.5 170.551 0.5 262.4 0.5H916.6C1008.45 0.5 1054.37 0.5 1089.45 18.3749C1120.31 34.0982 1145.4 59.187 1161.13 90.0456C1179 125.127 1179 171.051 1179 262.9V2294.1C1179 2385.95 1179 2431.87 1161.13 2466.95C1145.4 2497.81 1120.31 2522.9 1089.45 2538.62C1054.37 2556.5 1008.45 2556.5 916.6 2556.5H262.4C170.551 2556.5 124.627 2556.5 89.5456 2538.62C58.687 2522.9 33.5982 2497.81 17.8749 2466.95C0 2431.87 0 2385.95 0 2294.1V262.9Z" fill="#008000"/>
</svg>
