<svg width="1171" height="2532" viewBox="0 0 1171 2532" fill="none" xmlns="http://www.w3.org/2000/svg">
<path d="M0.5 224C0.5 145.593 0.5 106.389 15.7591 76.4413C29.1814 50.0986 50.5986 28.6814 76.9413 15.2591C106.889 0 146.093 0 224.5 0H946.5C1024.91 0 1064.11 0 1094.06 15.2591C1120.4 28.6814 1141.82 50.0986 1155.24 76.4413C1170.5 106.389 1170.5 145.593 1170.5 224V2308C1170.5 2386.41 1170.5 2425.61 1155.24 2455.56C1141.82 2481.9 1120.4 2503.32 1094.06 2516.74C1064.11 2532 1024.91 2532 946.5 2532H224.5C146.093 2532 106.889 2532 76.9413 2516.74C50.5986 2503.32 29.1814 2481.9 15.7591 2455.56C0.5 2425.61 0.5 2386.41 0.5 2308V224Z" fill="#008000"/>
</svg>
