<svg width="1290" height="2797" viewBox="0 0 1290 2797" fill="none" xmlns="http://www.w3.org/2000/svg">
<path d="M0 262.9C0 171.051 0 125.127 17.8749 90.0456C33.5982 59.187 58.687 34.0982 89.5456 18.3749C124.627 0.5 170.551 0.5 262.4 0.5H1027.6C1119.45 0.5 1165.37 0.5 1200.45 18.3749C1231.31 34.0982 1256.4 59.187 1272.13 90.0456C1290 125.127 1290 171.051 1290 262.9V2534.1C1290 2625.95 1290 2671.87 1272.13 2706.95C1256.4 2737.81 1231.31 2762.9 1200.45 2778.62C1165.37 2796.5 1119.45 2796.5 1027.6 2796.5H262.4C170.551 2796.5 124.627 2796.5 89.5456 2778.62C58.687 2762.9 33.5982 2737.81 17.8749 2706.95C0 2671.87 0 2625.95 0 2534.1V262.9Z" fill="#008000"/>
</svg>
