<svg width="1290" height="2797" viewBox="0 0 1290 2797" fill="none"
    xmlns="http://www.w3.org/2000/svg">
    <path
        d="M0 262.65C0 170.801 0 124.877 17.8749 89.7956C33.5982 58.937 58.687 33.8482 89.5456 18.1249C124.627 0.25 170.551 0.25 262.4 0.25H1027.6C1119.45 0.25 1165.37 0.25 1200.45 18.1249C1231.31 33.8482 1256.4 58.937 1272.13 89.7956C1290 124.877 1290 170.801 1290 262.65V2533.85C1290 2625.7 1290 2671.62 1272.13 2706.7C1256.4 2737.56 1231.31 2762.65 1200.45 2778.38C1165.37 2796.25 1119.45 2796.25 1027.6 2796.25H262.4C170.551 2796.25 124.627 2796.25 89.5456 2778.38C58.687 2762.65 33.5982 2737.56 17.8749 2706.7C0 2671.62 0 2625.7 0 2533.85V262.65Z"
        fill="#008000" />
</svg>
    